<?xml version="1.0" encoding="iso-8859-1"?>
<!-- Generator: Adobe Illustrator 21.0.2, SVG Export Plug-In . SVG Version: 6.00 Build 0)  -->
<svg version="1.1" id="Layer_1" xmlns="http://www.w3.org/2000/svg" xmlns:xlink="http://www.w3.org/1999/xlink" x="0px" y="0px"
	 viewBox="173 363 68 68" style="enable-background:new 173 363 68 68;" xml:space="preserve">
<g>
	<path style="fill:#F86B24;" d="M211.159,412.541h-0.453c-2.486,0.009-4.95-0.469-7.253-1.405c-0.424-0.175-0.912-0.076-1.235,0.249
		l-8.556,8.566c-2.657,2.657-6.965,2.657-9.622,0c-2.657-2.657-2.657-6.964,0-9.62l14.472-14.459c2.655-2.651,6.956-2.651,9.61,0
		c1.789,1.684,4.58,1.684,6.369,0c0.77-0.77,1.236-1.792,1.315-2.878c0.083-1.298-0.396-2.569-1.315-3.49
		c-0.806-0.81-1.699-1.529-2.663-2.142c-2.554-1.635-5.524-2.504-8.556-2.504c-4.21-0.008-8.248,1.664-11.22,4.646l-14.416,14.425
		c-2.966,2.972-4.634,6.998-4.636,11.196c-0.006,8.761,7.093,15.868,15.856,15.874c4.203,0.015,8.238-1.65,11.208-4.623l11.9-11.898
		c0.216-0.214,0.337-0.507,0.335-0.811C212.296,413.042,211.785,412.538,211.159,412.541z"/>
	<path style="fill:#F86B24;" d="M236.353,367.647c-6.196-6.196-16.243-6.196-22.439,0l-11.888,11.875
		c-0.326,0.328-0.421,0.821-0.238,1.246c0.181,0.426,0.602,0.7,1.065,0.691h0.419c2.483-0.005,4.943,0.477,7.242,1.416
		c0.424,0.175,0.912,0.076,1.235-0.249l8.534-8.521c2.657-2.657,6.965-2.657,9.622,0c2.657,2.657,2.657,6.964,0,9.62l-10.63,10.617
		l-0.091,0.102l-3.717,3.694c-2.655,2.651-6.956,2.651-9.61,0c-1.789-1.684-4.58-1.684-6.369,0
		c-0.775,0.776-1.242,1.807-1.315,2.901c-0.083,1.298,0.396,2.569,1.315,3.49c1.312,1.317,2.846,2.391,4.533,3.173
		c0.238,0.113,0.476,0.204,0.714,0.306c0.238,0.102,0.487,0.181,0.725,0.272s0.487,0.17,0.725,0.238l0.669,0.181
		c0.453,0.113,0.907,0.204,1.371,0.283c0.56,0.083,1.123,0.136,1.689,0.159h0.793h0.068l0.68-0.079
		c0.249-0.011,0.51-0.068,0.805-0.068h0.385l0.782-0.113l0.363-0.068l0.657-0.136h0.125c2.784-0.699,5.326-2.14,7.355-4.17
		l14.427-14.425C242.549,383.887,242.549,373.842,236.353,367.647z"/>
</g>
</svg>
