<?xml version="1.0" encoding="utf-8"?>
<!-- Generator: Adobe Illustrator 21.0.2, SVG Export Plug-In . SVG Version: 6.00 Build 0)  -->
<svg version="1.1" xmlns="http://www.w3.org/2000/svg" xmlns:xlink="http://www.w3.org/1999/xlink" x="0px" y="0px"
	 viewBox="0 0 69 55" enable-background="new 0 0 69 55" xml:space="preserve">
<g>
	<path fill="#F86B24" d="M0,30.759c0-9.233,2.428-16.668,7.285-22.306C12.141,2.82,19.223,0,28.531,0v12.834
		c-7.152,0-10.724,4.618-10.724,13.852v3.056h12.95V55H4.249C1.416,46.852,0,38.774,0,30.759z M38.446,30.759
		c0-9.233,2.393-16.668,7.183-22.306C50.415,2.82,57.466,0,66.774,0v12.834c-7.016,0-10.522,4.618-10.522,13.852v3.056H69V55H42.493
		C39.792,46.718,38.446,38.637,38.446,30.759z"/>
</g>
</svg>
